<?xml version="1.0" encoding="utf-8" standalone="no"?>
<!DOCTYPE svg PUBLIC "-//W3C//DTD SVG 1.1//EN"
  "http://www.w3.org/Graphics/SVG/1.1/DTD/svg11.dtd">
<svg xmlns:xlink="http://www.w3.org/1999/xlink" width="460.8pt" height="345.6pt" viewBox="0 0 460.8 345.6" xmlns="http://www.w3.org/2000/svg" version="1.1">
 <metadata>
  <rdf:RDF xmlns:dc="http://purl.org/dc/elements/1.1/" xmlns:cc="http://creativecommons.org/ns#" xmlns:rdf="http://www.w3.org/1999/02/22-rdf-syntax-ns#">
   <cc:Work>
    <dc:type rdf:resource="http://purl.org/dc/dcmitype/StillImage"/>
    <dc:date>2025-04-26T20:06:38.732796</dc:date>
    <dc:format>image/svg+xml</dc:format>
    <dc:creator>
     <cc:Agent>
      <dc:title>Matplotlib v3.10.1, https://matplotlib.org/</dc:title>
     </cc:Agent>
    </dc:creator>
   </cc:Work>
  </rdf:RDF>
 </metadata>
 <defs>
  <style type="text/css">*{stroke-linejoin: round; stroke-linecap: butt}</style>
 </defs>
 <g id="figure_1">
  <g id="patch_1">
   <path d="M 0 345.6 
L 460.8 345.6 
L 460.8 0 
L 0 0 
z
" style="fill: #ffffff"/>
  </g>
  <g id="axes_1">
   <g id="patch_2">
    <path d="M 57.6 307.584 
L 414.72 307.584 
L 414.72 41.472 
L 57.6 41.472 
z
" style="fill: #ffffff"/>
   </g>
   <g id="matplotlib.axis_1">
    <g id="xtick_1">
     <g id="line2d_1">
      <defs>
       <path id="m6839f894e5" d="M 0 0 
L 0 3.5 
" style="stroke: #000000; stroke-width: 0.8"/>
      </defs>
      <g>
       <use xlink:href="#m6839f894e5" x="57.6" y="307.584" style="stroke: #000000; stroke-width: 0.8"/>
      </g>
     </g>
     <g id="text_1">
      <!-- 7 -->
      <g transform="translate(54.41875 322.182437) scale(0.1 -0.1)">
       <defs>
        <path id="DejaVuSans-37" d="M 525 4666 
L 3525 4666 
L 3525 4397 
L 1831 0 
L 1172 0 
L 2766 4134 
L 525 4134 
L 525 4666 
z
" transform="scale(0.015625)"/>
       </defs>
       <use xlink:href="#DejaVuSans-37"/>
      </g>
     </g>
    </g>
    <g id="xtick_2">
     <g id="line2d_2">
      <g>
       <use xlink:href="#m6839f894e5" x="102.24" y="307.584" style="stroke: #000000; stroke-width: 0.8"/>
      </g>
     </g>
     <g id="text_2">
      <!-- 8 -->
      <g transform="translate(99.05875 322.182437) scale(0.1 -0.1)">
       <defs>
        <path id="DejaVuSans-38" d="M 2034 2216 
Q 1584 2216 1326 1975 
Q 1069 1734 1069 1313 
Q 1069 891 1326 650 
Q 1584 409 2034 409 
Q 2484 409 2743 651 
Q 3003 894 3003 1313 
Q 3003 1734 2745 1975 
Q 2488 2216 2034 2216 
z
M 1403 2484 
Q 997 2584 770 2862 
Q 544 3141 544 3541 
Q 544 4100 942 4425 
Q 1341 4750 2034 4750 
Q 2731 4750 3128 4425 
Q 3525 4100 3525 3541 
Q 3525 3141 3298 2862 
Q 3072 2584 2669 2484 
Q 3125 2378 3379 2068 
Q 3634 1759 3634 1313 
Q 3634 634 3220 271 
Q 2806 -91 2034 -91 
Q 1263 -91 848 271 
Q 434 634 434 1313 
Q 434 1759 690 2068 
Q 947 2378 1403 2484 
z
M 1172 3481 
Q 1172 3119 1398 2916 
Q 1625 2713 2034 2713 
Q 2441 2713 2670 2916 
Q 2900 3119 2900 3481 
Q 2900 3844 2670 4047 
Q 2441 4250 2034 4250 
Q 1625 4250 1398 4047 
Q 1172 3844 1172 3481 
z
" transform="scale(0.015625)"/>
       </defs>
       <use xlink:href="#DejaVuSans-38"/>
      </g>
     </g>
    </g>
    <g id="xtick_3">
     <g id="line2d_3">
      <g>
       <use xlink:href="#m6839f894e5" x="146.88" y="307.584" style="stroke: #000000; stroke-width: 0.8"/>
      </g>
     </g>
     <g id="text_3">
      <!-- 9 -->
      <g transform="translate(143.69875 322.182437) scale(0.1 -0.1)">
       <defs>
        <path id="DejaVuSans-39" d="M 703 97 
L 703 672 
Q 941 559 1184 500 
Q 1428 441 1663 441 
Q 2288 441 2617 861 
Q 2947 1281 2994 2138 
Q 2813 1869 2534 1725 
Q 2256 1581 1919 1581 
Q 1219 1581 811 2004 
Q 403 2428 403 3163 
Q 403 3881 828 4315 
Q 1253 4750 1959 4750 
Q 2769 4750 3195 4129 
Q 3622 3509 3622 2328 
Q 3622 1225 3098 567 
Q 2575 -91 1691 -91 
Q 1453 -91 1209 -44 
Q 966 3 703 97 
z
M 1959 2075 
Q 2384 2075 2632 2365 
Q 2881 2656 2881 3163 
Q 2881 3666 2632 3958 
Q 2384 4250 1959 4250 
Q 1534 4250 1286 3958 
Q 1038 3666 1038 3163 
Q 1038 2656 1286 2365 
Q 1534 2075 1959 2075 
z
" transform="scale(0.015625)"/>
       </defs>
       <use xlink:href="#DejaVuSans-39"/>
      </g>
     </g>
    </g>
    <g id="xtick_4">
     <g id="line2d_4">
      <g>
       <use xlink:href="#m6839f894e5" x="191.52" y="307.584" style="stroke: #000000; stroke-width: 0.8"/>
      </g>
     </g>
     <g id="text_4">
      <!-- 10 -->
      <g transform="translate(185.1575 322.182437) scale(0.1 -0.1)">
       <defs>
        <path id="DejaVuSans-31" d="M 794 531 
L 1825 531 
L 1825 4091 
L 703 3866 
L 703 4441 
L 1819 4666 
L 2450 4666 
L 2450 531 
L 3481 531 
L 3481 0 
L 794 0 
L 794 531 
z
" transform="scale(0.015625)"/>
        <path id="DejaVuSans-30" d="M 2034 4250 
Q 1547 4250 1301 3770 
Q 1056 3291 1056 2328 
Q 1056 1369 1301 889 
Q 1547 409 2034 409 
Q 2525 409 2770 889 
Q 3016 1369 3016 2328 
Q 3016 3291 2770 3770 
Q 2525 4250 2034 4250 
z
M 2034 4750 
Q 2819 4750 3233 4129 
Q 3647 3509 3647 2328 
Q 3647 1150 3233 529 
Q 2819 -91 2034 -91 
Q 1250 -91 836 529 
Q 422 1150 422 2328 
Q 422 3509 836 4129 
Q 1250 4750 2034 4750 
z
" transform="scale(0.015625)"/>
       </defs>
       <use xlink:href="#DejaVuSans-31"/>
       <use xlink:href="#DejaVuSans-30" transform="translate(63.623047 0)"/>
      </g>
     </g>
    </g>
    <g id="xtick_5">
     <g id="line2d_5">
      <g>
       <use xlink:href="#m6839f894e5" x="236.16" y="307.584" style="stroke: #000000; stroke-width: 0.8"/>
      </g>
     </g>
     <g id="text_5">
      <!-- 11 -->
      <g transform="translate(229.7975 322.182437) scale(0.1 -0.1)">
       <use xlink:href="#DejaVuSans-31"/>
       <use xlink:href="#DejaVuSans-31" transform="translate(63.623047 0)"/>
      </g>
     </g>
    </g>
    <g id="xtick_6">
     <g id="line2d_6">
      <g>
       <use xlink:href="#m6839f894e5" x="280.8" y="307.584" style="stroke: #000000; stroke-width: 0.8"/>
      </g>
     </g>
     <g id="text_6">
      <!-- 12 -->
      <g transform="translate(274.4375 322.182437) scale(0.1 -0.1)">
       <defs>
        <path id="DejaVuSans-32" d="M 1228 531 
L 3431 531 
L 3431 0 
L 469 0 
L 469 531 
Q 828 903 1448 1529 
Q 2069 2156 2228 2338 
Q 2531 2678 2651 2914 
Q 2772 3150 2772 3378 
Q 2772 3750 2511 3984 
Q 2250 4219 1831 4219 
Q 1534 4219 1204 4116 
Q 875 4013 500 3803 
L 500 4441 
Q 881 4594 1212 4672 
Q 1544 4750 1819 4750 
Q 2544 4750 2975 4387 
Q 3406 4025 3406 3419 
Q 3406 3131 3298 2873 
Q 3191 2616 2906 2266 
Q 2828 2175 2409 1742 
Q 1991 1309 1228 531 
z
" transform="scale(0.015625)"/>
       </defs>
       <use xlink:href="#DejaVuSans-31"/>
       <use xlink:href="#DejaVuSans-32" transform="translate(63.623047 0)"/>
      </g>
     </g>
    </g>
    <g id="xtick_7">
     <g id="line2d_7">
      <g>
       <use xlink:href="#m6839f894e5" x="325.44" y="307.584" style="stroke: #000000; stroke-width: 0.8"/>
      </g>
     </g>
     <g id="text_7">
      <!-- 13 -->
      <g transform="translate(319.0775 322.182437) scale(0.1 -0.1)">
       <defs>
        <path id="DejaVuSans-33" d="M 2597 2516 
Q 3050 2419 3304 2112 
Q 3559 1806 3559 1356 
Q 3559 666 3084 287 
Q 2609 -91 1734 -91 
Q 1441 -91 1130 -33 
Q 819 25 488 141 
L 488 750 
Q 750 597 1062 519 
Q 1375 441 1716 441 
Q 2309 441 2620 675 
Q 2931 909 2931 1356 
Q 2931 1769 2642 2001 
Q 2353 2234 1838 2234 
L 1294 2234 
L 1294 2753 
L 1863 2753 
Q 2328 2753 2575 2939 
Q 2822 3125 2822 3475 
Q 2822 3834 2567 4026 
Q 2313 4219 1838 4219 
Q 1578 4219 1281 4162 
Q 984 4106 628 3988 
L 628 4550 
Q 988 4650 1302 4700 
Q 1616 4750 1894 4750 
Q 2613 4750 3031 4423 
Q 3450 4097 3450 3541 
Q 3450 3153 3228 2886 
Q 3006 2619 2597 2516 
z
" transform="scale(0.015625)"/>
       </defs>
       <use xlink:href="#DejaVuSans-31"/>
       <use xlink:href="#DejaVuSans-33" transform="translate(63.623047 0)"/>
      </g>
     </g>
    </g>
    <g id="xtick_8">
     <g id="line2d_8">
      <g>
       <use xlink:href="#m6839f894e5" x="370.08" y="307.584" style="stroke: #000000; stroke-width: 0.8"/>
      </g>
     </g>
     <g id="text_8">
      <!-- 14 -->
      <g transform="translate(363.7175 322.182437) scale(0.1 -0.1)">
       <defs>
        <path id="DejaVuSans-34" d="M 2419 4116 
L 825 1625 
L 2419 1625 
L 2419 4116 
z
M 2253 4666 
L 3047 4666 
L 3047 1625 
L 3713 1625 
L 3713 1100 
L 3047 1100 
L 3047 0 
L 2419 0 
L 2419 1100 
L 313 1100 
L 313 1709 
L 2253 4666 
z
" transform="scale(0.015625)"/>
       </defs>
       <use xlink:href="#DejaVuSans-31"/>
       <use xlink:href="#DejaVuSans-34" transform="translate(63.623047 0)"/>
      </g>
     </g>
    </g>
    <g id="xtick_9">
     <g id="line2d_9">
      <g>
       <use xlink:href="#m6839f894e5" x="414.72" y="307.584" style="stroke: #000000; stroke-width: 0.8"/>
      </g>
     </g>
     <g id="text_9">
      <!-- 15 -->
      <g transform="translate(408.3575 322.182437) scale(0.1 -0.1)">
       <defs>
        <path id="DejaVuSans-35" d="M 691 4666 
L 3169 4666 
L 3169 4134 
L 1269 4134 
L 1269 2991 
Q 1406 3038 1543 3061 
Q 1681 3084 1819 3084 
Q 2600 3084 3056 2656 
Q 3513 2228 3513 1497 
Q 3513 744 3044 326 
Q 2575 -91 1722 -91 
Q 1428 -91 1123 -41 
Q 819 9 494 109 
L 494 744 
Q 775 591 1075 516 
Q 1375 441 1709 441 
Q 2250 441 2565 725 
Q 2881 1009 2881 1497 
Q 2881 1984 2565 2268 
Q 2250 2553 1709 2553 
Q 1456 2553 1204 2497 
Q 953 2441 691 2322 
L 691 4666 
z
" transform="scale(0.015625)"/>
       </defs>
       <use xlink:href="#DejaVuSans-31"/>
       <use xlink:href="#DejaVuSans-35" transform="translate(63.623047 0)"/>
      </g>
     </g>
    </g>
    <g id="text_10">
     <!-- Frequency (GHz) -->
     <g transform="translate(194.581094 335.860562) scale(0.1 -0.1)">
      <defs>
       <path id="DejaVuSans-46" d="M 628 4666 
L 3309 4666 
L 3309 4134 
L 1259 4134 
L 1259 2759 
L 3109 2759 
L 3109 2228 
L 1259 2228 
L 1259 0 
L 628 0 
L 628 4666 
z
" transform="scale(0.015625)"/>
       <path id="DejaVuSans-72" d="M 2631 2963 
Q 2534 3019 2420 3045 
Q 2306 3072 2169 3072 
Q 1681 3072 1420 2755 
Q 1159 2438 1159 1844 
L 1159 0 
L 581 0 
L 581 3500 
L 1159 3500 
L 1159 2956 
Q 1341 3275 1631 3429 
Q 1922 3584 2338 3584 
Q 2397 3584 2469 3576 
Q 2541 3569 2628 3553 
L 2631 2963 
z
" transform="scale(0.015625)"/>
       <path id="DejaVuSans-65" d="M 3597 1894 
L 3597 1613 
L 953 1613 
Q 991 1019 1311 708 
Q 1631 397 2203 397 
Q 2534 397 2845 478 
Q 3156 559 3463 722 
L 3463 178 
Q 3153 47 2828 -22 
Q 2503 -91 2169 -91 
Q 1331 -91 842 396 
Q 353 884 353 1716 
Q 353 2575 817 3079 
Q 1281 3584 2069 3584 
Q 2775 3584 3186 3129 
Q 3597 2675 3597 1894 
z
M 3022 2063 
Q 3016 2534 2758 2815 
Q 2500 3097 2075 3097 
Q 1594 3097 1305 2825 
Q 1016 2553 972 2059 
L 3022 2063 
z
" transform="scale(0.015625)"/>
       <path id="DejaVuSans-71" d="M 947 1747 
Q 947 1113 1208 752 
Q 1469 391 1925 391 
Q 2381 391 2643 752 
Q 2906 1113 2906 1747 
Q 2906 2381 2643 2742 
Q 2381 3103 1925 3103 
Q 1469 3103 1208 2742 
Q 947 2381 947 1747 
z
M 2906 525 
Q 2725 213 2448 61 
Q 2172 -91 1784 -91 
Q 1150 -91 751 415 
Q 353 922 353 1747 
Q 353 2572 751 3078 
Q 1150 3584 1784 3584 
Q 2172 3584 2448 3432 
Q 2725 3281 2906 2969 
L 2906 3500 
L 3481 3500 
L 3481 -1331 
L 2906 -1331 
L 2906 525 
z
" transform="scale(0.015625)"/>
       <path id="DejaVuSans-75" d="M 544 1381 
L 544 3500 
L 1119 3500 
L 1119 1403 
Q 1119 906 1312 657 
Q 1506 409 1894 409 
Q 2359 409 2629 706 
Q 2900 1003 2900 1516 
L 2900 3500 
L 3475 3500 
L 3475 0 
L 2900 0 
L 2900 538 
Q 2691 219 2414 64 
Q 2138 -91 1772 -91 
Q 1169 -91 856 284 
Q 544 659 544 1381 
z
M 1991 3584 
L 1991 3584 
z
" transform="scale(0.015625)"/>
       <path id="DejaVuSans-6e" d="M 3513 2113 
L 3513 0 
L 2938 0 
L 2938 2094 
Q 2938 2591 2744 2837 
Q 2550 3084 2163 3084 
Q 1697 3084 1428 2787 
Q 1159 2491 1159 1978 
L 1159 0 
L 581 0 
L 581 3500 
L 1159 3500 
L 1159 2956 
Q 1366 3272 1645 3428 
Q 1925 3584 2291 3584 
Q 2894 3584 3203 3211 
Q 3513 2838 3513 2113 
z
" transform="scale(0.015625)"/>
       <path id="DejaVuSans-63" d="M 3122 3366 
L 3122 2828 
Q 2878 2963 2633 3030 
Q 2388 3097 2138 3097 
Q 1578 3097 1268 2742 
Q 959 2388 959 1747 
Q 959 1106 1268 751 
Q 1578 397 2138 397 
Q 2388 397 2633 464 
Q 2878 531 3122 666 
L 3122 134 
Q 2881 22 2623 -34 
Q 2366 -91 2075 -91 
Q 1284 -91 818 406 
Q 353 903 353 1747 
Q 353 2603 823 3093 
Q 1294 3584 2113 3584 
Q 2378 3584 2631 3529 
Q 2884 3475 3122 3366 
z
" transform="scale(0.015625)"/>
       <path id="DejaVuSans-79" d="M 2059 -325 
Q 1816 -950 1584 -1140 
Q 1353 -1331 966 -1331 
L 506 -1331 
L 506 -850 
L 844 -850 
Q 1081 -850 1212 -737 
Q 1344 -625 1503 -206 
L 1606 56 
L 191 3500 
L 800 3500 
L 1894 763 
L 2988 3500 
L 3597 3500 
L 2059 -325 
z
" transform="scale(0.015625)"/>
       <path id="DejaVuSans-20" transform="scale(0.015625)"/>
       <path id="DejaVuSans-28" d="M 1984 4856 
Q 1566 4138 1362 3434 
Q 1159 2731 1159 2009 
Q 1159 1288 1364 580 
Q 1569 -128 1984 -844 
L 1484 -844 
Q 1016 -109 783 600 
Q 550 1309 550 2009 
Q 550 2706 781 3412 
Q 1013 4119 1484 4856 
L 1984 4856 
z
" transform="scale(0.015625)"/>
       <path id="DejaVuSans-47" d="M 3809 666 
L 3809 1919 
L 2778 1919 
L 2778 2438 
L 4434 2438 
L 4434 434 
Q 4069 175 3628 42 
Q 3188 -91 2688 -91 
Q 1594 -91 976 548 
Q 359 1188 359 2328 
Q 359 3472 976 4111 
Q 1594 4750 2688 4750 
Q 3144 4750 3555 4637 
Q 3966 4525 4313 4306 
L 4313 3634 
Q 3963 3931 3569 4081 
Q 3175 4231 2741 4231 
Q 1884 4231 1454 3753 
Q 1025 3275 1025 2328 
Q 1025 1384 1454 906 
Q 1884 428 2741 428 
Q 3075 428 3337 486 
Q 3600 544 3809 666 
z
" transform="scale(0.015625)"/>
       <path id="DejaVuSans-48" d="M 628 4666 
L 1259 4666 
L 1259 2753 
L 3553 2753 
L 3553 4666 
L 4184 4666 
L 4184 0 
L 3553 0 
L 3553 2222 
L 1259 2222 
L 1259 0 
L 628 0 
L 628 4666 
z
" transform="scale(0.015625)"/>
       <path id="DejaVuSans-7a" d="M 353 3500 
L 3084 3500 
L 3084 2975 
L 922 459 
L 3084 459 
L 3084 0 
L 275 0 
L 275 525 
L 2438 3041 
L 353 3041 
L 353 3500 
z
" transform="scale(0.015625)"/>
       <path id="DejaVuSans-29" d="M 513 4856 
L 1013 4856 
Q 1481 4119 1714 3412 
Q 1947 2706 1947 2009 
Q 1947 1309 1714 600 
Q 1481 -109 1013 -844 
L 513 -844 
Q 928 -128 1133 580 
Q 1338 1288 1338 2009 
Q 1338 2731 1133 3434 
Q 928 4138 513 4856 
z
" transform="scale(0.015625)"/>
      </defs>
      <use xlink:href="#DejaVuSans-46"/>
      <use xlink:href="#DejaVuSans-72" transform="translate(50.269531 0)"/>
      <use xlink:href="#DejaVuSans-65" transform="translate(89.132812 0)"/>
      <use xlink:href="#DejaVuSans-71" transform="translate(150.65625 0)"/>
      <use xlink:href="#DejaVuSans-75" transform="translate(214.132812 0)"/>
      <use xlink:href="#DejaVuSans-65" transform="translate(277.511719 0)"/>
      <use xlink:href="#DejaVuSans-6e" transform="translate(339.035156 0)"/>
      <use xlink:href="#DejaVuSans-63" transform="translate(402.414062 0)"/>
      <use xlink:href="#DejaVuSans-79" transform="translate(457.394531 0)"/>
      <use xlink:href="#DejaVuSans-20" transform="translate(516.574219 0)"/>
      <use xlink:href="#DejaVuSans-28" transform="translate(548.361328 0)"/>
      <use xlink:href="#DejaVuSans-47" transform="translate(587.375 0)"/>
      <use xlink:href="#DejaVuSans-48" transform="translate(664.865234 0)"/>
      <use xlink:href="#DejaVuSans-7a" transform="translate(740.060547 0)"/>
      <use xlink:href="#DejaVuSans-29" transform="translate(792.550781 0)"/>
     </g>
    </g>
   </g>
   <g id="matplotlib.axis_2">
    <g id="ytick_1">
     <g id="line2d_10">
      <defs>
       <path id="m009e19e68a" d="M 0 0 
L -3.5 0 
" style="stroke: #000000; stroke-width: 0.8"/>
      </defs>
      <g>
       <use xlink:href="#m009e19e68a" x="57.6" y="263.445554" style="stroke: #000000; stroke-width: 0.8"/>
      </g>
     </g>
     <g id="text_11">
      <!-- −40 -->
      <g transform="translate(29.495313 267.244773) scale(0.1 -0.1)">
       <defs>
        <path id="DejaVuSans-2212" d="M 678 2272 
L 4684 2272 
L 4684 1741 
L 678 1741 
L 678 2272 
z
" transform="scale(0.015625)"/>
       </defs>
       <use xlink:href="#DejaVuSans-2212"/>
       <use xlink:href="#DejaVuSans-34" transform="translate(83.789062 0)"/>
       <use xlink:href="#DejaVuSans-30" transform="translate(147.412109 0)"/>
      </g>
     </g>
    </g>
    <g id="ytick_2">
     <g id="line2d_11">
      <g>
       <use xlink:href="#m009e19e68a" x="57.6" y="211.554844" style="stroke: #000000; stroke-width: 0.8"/>
      </g>
     </g>
     <g id="text_12">
      <!-- −30 -->
      <g transform="translate(29.495313 215.354062) scale(0.1 -0.1)">
       <use xlink:href="#DejaVuSans-2212"/>
       <use xlink:href="#DejaVuSans-33" transform="translate(83.789062 0)"/>
       <use xlink:href="#DejaVuSans-30" transform="translate(147.412109 0)"/>
      </g>
     </g>
    </g>
    <g id="ytick_3">
     <g id="line2d_12">
      <g>
       <use xlink:href="#m009e19e68a" x="57.6" y="159.664133" style="stroke: #000000; stroke-width: 0.8"/>
      </g>
     </g>
     <g id="text_13">
      <!-- −20 -->
      <g transform="translate(29.495313 163.463352) scale(0.1 -0.1)">
       <use xlink:href="#DejaVuSans-2212"/>
       <use xlink:href="#DejaVuSans-32" transform="translate(83.789062 0)"/>
       <use xlink:href="#DejaVuSans-30" transform="translate(147.412109 0)"/>
      </g>
     </g>
    </g>
    <g id="ytick_4">
     <g id="line2d_13">
      <g>
       <use xlink:href="#m009e19e68a" x="57.6" y="107.773423" style="stroke: #000000; stroke-width: 0.8"/>
      </g>
     </g>
     <g id="text_14">
      <!-- −10 -->
      <g transform="translate(29.495313 111.572641) scale(0.1 -0.1)">
       <use xlink:href="#DejaVuSans-2212"/>
       <use xlink:href="#DejaVuSans-31" transform="translate(83.789062 0)"/>
       <use xlink:href="#DejaVuSans-30" transform="translate(147.412109 0)"/>
      </g>
     </g>
    </g>
    <g id="ytick_5">
     <g id="line2d_14">
      <g>
       <use xlink:href="#m009e19e68a" x="57.6" y="55.882712" style="stroke: #000000; stroke-width: 0.8"/>
      </g>
     </g>
     <g id="text_15">
      <!-- 0 -->
      <g transform="translate(44.2375 59.681931) scale(0.1 -0.1)">
       <use xlink:href="#DejaVuSans-30"/>
      </g>
     </g>
    </g>
    <g id="text_16">
     <!-- Magnitude (dB) -->
     <g transform="translate(23.415625 213.113156) rotate(-90) scale(0.1 -0.1)">
      <defs>
       <path id="DejaVuSans-4d" d="M 628 4666 
L 1569 4666 
L 2759 1491 
L 3956 4666 
L 4897 4666 
L 4897 0 
L 4281 0 
L 4281 4097 
L 3078 897 
L 2444 897 
L 1241 4097 
L 1241 0 
L 628 0 
L 628 4666 
z
" transform="scale(0.015625)"/>
       <path id="DejaVuSans-61" d="M 2194 1759 
Q 1497 1759 1228 1600 
Q 959 1441 959 1056 
Q 959 750 1161 570 
Q 1363 391 1709 391 
Q 2188 391 2477 730 
Q 2766 1069 2766 1631 
L 2766 1759 
L 2194 1759 
z
M 3341 1997 
L 3341 0 
L 2766 0 
L 2766 531 
Q 2569 213 2275 61 
Q 1981 -91 1556 -91 
Q 1019 -91 701 211 
Q 384 513 384 1019 
Q 384 1609 779 1909 
Q 1175 2209 1959 2209 
L 2766 2209 
L 2766 2266 
Q 2766 2663 2505 2880 
Q 2244 3097 1772 3097 
Q 1472 3097 1187 3025 
Q 903 2953 641 2809 
L 641 3341 
Q 956 3463 1253 3523 
Q 1550 3584 1831 3584 
Q 2591 3584 2966 3190 
Q 3341 2797 3341 1997 
z
" transform="scale(0.015625)"/>
       <path id="DejaVuSans-67" d="M 2906 1791 
Q 2906 2416 2648 2759 
Q 2391 3103 1925 3103 
Q 1463 3103 1205 2759 
Q 947 2416 947 1791 
Q 947 1169 1205 825 
Q 1463 481 1925 481 
Q 2391 481 2648 825 
Q 2906 1169 2906 1791 
z
M 3481 434 
Q 3481 -459 3084 -895 
Q 2688 -1331 1869 -1331 
Q 1566 -1331 1297 -1286 
Q 1028 -1241 775 -1147 
L 775 -588 
Q 1028 -725 1275 -790 
Q 1522 -856 1778 -856 
Q 2344 -856 2625 -561 
Q 2906 -266 2906 331 
L 2906 616 
Q 2728 306 2450 153 
Q 2172 0 1784 0 
Q 1141 0 747 490 
Q 353 981 353 1791 
Q 353 2603 747 3093 
Q 1141 3584 1784 3584 
Q 2172 3584 2450 3431 
Q 2728 3278 2906 2969 
L 2906 3500 
L 3481 3500 
L 3481 434 
z
" transform="scale(0.015625)"/>
       <path id="DejaVuSans-69" d="M 603 3500 
L 1178 3500 
L 1178 0 
L 603 0 
L 603 3500 
z
M 603 4863 
L 1178 4863 
L 1178 4134 
L 603 4134 
L 603 4863 
z
" transform="scale(0.015625)"/>
       <path id="DejaVuSans-74" d="M 1172 4494 
L 1172 3500 
L 2356 3500 
L 2356 3053 
L 1172 3053 
L 1172 1153 
Q 1172 725 1289 603 
Q 1406 481 1766 481 
L 2356 481 
L 2356 0 
L 1766 0 
Q 1100 0 847 248 
Q 594 497 594 1153 
L 594 3053 
L 172 3053 
L 172 3500 
L 594 3500 
L 594 4494 
L 1172 4494 
z
" transform="scale(0.015625)"/>
       <path id="DejaVuSans-64" d="M 2906 2969 
L 2906 4863 
L 3481 4863 
L 3481 0 
L 2906 0 
L 2906 525 
Q 2725 213 2448 61 
Q 2172 -91 1784 -91 
Q 1150 -91 751 415 
Q 353 922 353 1747 
Q 353 2572 751 3078 
Q 1150 3584 1784 3584 
Q 2172 3584 2448 3432 
Q 2725 3281 2906 2969 
z
M 947 1747 
Q 947 1113 1208 752 
Q 1469 391 1925 391 
Q 2381 391 2643 752 
Q 2906 1113 2906 1747 
Q 2906 2381 2643 2742 
Q 2381 3103 1925 3103 
Q 1469 3103 1208 2742 
Q 947 2381 947 1747 
z
" transform="scale(0.015625)"/>
       <path id="DejaVuSans-42" d="M 1259 2228 
L 1259 519 
L 2272 519 
Q 2781 519 3026 730 
Q 3272 941 3272 1375 
Q 3272 1813 3026 2020 
Q 2781 2228 2272 2228 
L 1259 2228 
z
M 1259 4147 
L 1259 2741 
L 2194 2741 
Q 2656 2741 2882 2914 
Q 3109 3088 3109 3444 
Q 3109 3797 2882 3972 
Q 2656 4147 2194 4147 
L 1259 4147 
z
M 628 4666 
L 2241 4666 
Q 2963 4666 3353 4366 
Q 3744 4066 3744 3513 
Q 3744 3084 3544 2831 
Q 3344 2578 2956 2516 
Q 3422 2416 3680 2098 
Q 3938 1781 3938 1306 
Q 3938 681 3513 340 
Q 3088 0 2303 0 
L 628 0 
L 628 4666 
z
" transform="scale(0.015625)"/>
      </defs>
      <use xlink:href="#DejaVuSans-4d"/>
      <use xlink:href="#DejaVuSans-61" transform="translate(86.279297 0)"/>
      <use xlink:href="#DejaVuSans-67" transform="translate(147.558594 0)"/>
      <use xlink:href="#DejaVuSans-6e" transform="translate(211.035156 0)"/>
      <use xlink:href="#DejaVuSans-69" transform="translate(274.414062 0)"/>
      <use xlink:href="#DejaVuSans-74" transform="translate(302.197266 0)"/>
      <use xlink:href="#DejaVuSans-75" transform="translate(341.40625 0)"/>
      <use xlink:href="#DejaVuSans-64" transform="translate(404.785156 0)"/>
      <use xlink:href="#DejaVuSans-65" transform="translate(468.261719 0)"/>
      <use xlink:href="#DejaVuSans-20" transform="translate(529.785156 0)"/>
      <use xlink:href="#DejaVuSans-28" transform="translate(561.572266 0)"/>
      <use xlink:href="#DejaVuSans-64" transform="translate(600.585938 0)"/>
      <use xlink:href="#DejaVuSans-42" transform="translate(664.0625 0)"/>
      <use xlink:href="#DejaVuSans-29" transform="translate(732.666016 0)"/>
     </g>
    </g>
   </g>
   <g id="line2d_15">
    <path d="M 57.6 112.890587 
L 58.4928 129.901271 
L 59.3856 123.919348 
L 60.2784 112.932766 
L 61.1712 117.244543 
L 62.9568 136.518509 
L 63.8496 123.036954 
L 64.7424 121.181479 
L 65.6352 133.132041 
L 66.528 133.426804 
L 67.4208 120.039516 
L 68.3136 110.792885 
L 69.2064 115.763757 
L 70.0992 131.581002 
L 70.992 124.180595 
L 71.8848 112.27594 
L 72.7776 113.905669 
L 73.6704 134.461286 
L 74.5632 172.102536 
L 75.456 143.443157 
L 76.3488 129.142139 
L 77.2416 146.675476 
L 78.1344 144.669744 
L 79.0272 122.534815 
L 79.92 109.66211 
L 80.8128 117.46855 
L 82.5984 142.306399 
L 83.4912 126.846231 
L 84.384 137.363913 
L 85.2768 171.001439 
L 86.1696 173.545414 
L 87.0624 139.293846 
L 87.9552 135.193464 
L 88.848 160.851826 
L 89.7408 141.24437 
L 90.6336 126.997991 
L 91.5264 119.432912 
L 92.4192 128.220113 
L 94.2048 167.178933 
L 95.0976 140.032247 
L 95.9904 146.633943 
L 96.8832 217.987607 
L 97.776 157.271182 
L 98.6688 129.497718 
L 99.5616 123.126387 
L 100.4544 134.589474 
L 101.3472 135.197129 
L 102.24 124.270591 
L 103.1328 118.485599 
L 104.0256 123.772461 
L 104.9184 152.957881 
L 105.8112 170.247387 
L 106.704 145.149421 
L 107.5968 145.152078 
L 108.4896 217.239318 
L 109.3824 149.030168 
L 110.2752 123.114724 
L 111.168 126.666295 
L 112.0608 142.233963 
L 112.9536 153.47243 
L 113.8464 139.233986 
L 114.7392 136.698223 
L 115.632 144.323605 
L 116.5248 180.268863 
L 117.4176 242.024646 
L 118.3104 172.444263 
L 119.2032 161.152301 
L 120.096 154.031671 
L 120.9888 130.104519 
L 121.8816 119.54162 
L 122.7744 126.814552 
L 123.6672 136.457433 
L 124.56 141.206469 
L 125.4528 136.094796 
L 126.3456 141.909043 
L 127.2384 167.208311 
L 128.1312 180.669861 
L 129.024 142.993871 
L 129.9168 136.27587 
L 130.8096 141.65933 
L 131.7024 141.915104 
L 132.5952 129.850611 
L 133.488 123.822861 
L 134.3808 126.891149 
L 135.2736 139.764645 
L 136.1664 145.599994 
L 137.0592 145.368707 
L 137.952 148.707472 
L 138.8448 179.6125 
L 139.7376 170.851177 
L 140.6304 138.242118 
L 141.5232 132.651566 
L 142.416 140.066501 
L 143.3088 131.901663 
L 144.2016 120.311948 
L 145.0944 115.919697 
L 145.9872 128.909026 
L 146.88 146.134685 
L 147.7728 150.855402 
L 148.6656 142.529526 
L 149.5584 142.631872 
L 150.4512 168.549584 
L 152.2368 131.554385 
L 153.1296 122.666915 
L 154.0224 138.874605 
L 154.9152 135.906259 
L 155.808 124.822171 
L 156.7008 118.425326 
L 157.5936 127.157104 
L 158.4864 144.431185 
L 159.3792 140.587316 
L 160.272 131.404117 
L 161.1648 143.300871 
L 162.0576 161.105545 
L 163.8432 120.170571 
L 164.736 115.906339 
L 165.6288 125.831789 
L 166.5216 123.229466 
L 167.4144 114.031158 
L 168.3072 113.746444 
L 169.2 123.864268 
L 170.0928 138.245142 
L 170.9856 137.49703 
L 171.8784 125.073237 
L 173.664 131.517779 
L 174.5568 120.24073 
L 175.4496 105.421653 
L 176.3424 104.919947 
L 177.2352 113.689121 
L 178.128 119.665105 
L 179.0208 111.089727 
L 179.9136 111.562126 
L 180.8064 119.814446 
L 181.6992 141.985468 
L 182.592 138.192206 
L 183.4848 129.490634 
L 184.3776 123.13033 
L 185.2704 139.314241 
L 187.056 106.385827 
L 187.9488 104.837973 
L 188.8416 117.301179 
L 189.7344 119.632523 
L 190.6272 111.970657 
L 191.52 114.022769 
L 192.4128 124.64751 
L 193.3056 137.244591 
L 194.1984 121.113183 
L 195.984 110.427939 
L 196.8768 111.725593 
L 197.7696 106.360873 
L 198.6624 98.12244 
L 199.5552 97.459028 
L 200.448 104.535654 
L 201.3408 112.93841 
L 202.2336 117.759198 
L 203.1264 115.235678 
L 204.912 133.799479 
L 205.8048 132.065215 
L 206.6976 112.467242 
L 207.5904 107.868674 
L 208.4832 102.195115 
L 209.376 102.383482 
L 210.2688 97.632878 
L 211.1616 102.234409 
L 212.0544 109.598041 
L 212.9472 118.271382 
L 213.84 119.952955 
L 214.7328 118.955231 
L 215.6256 122.358408 
L 216.5184 122.729716 
L 217.4112 113.320749 
L 218.304 100.810923 
L 219.1968 98.658169 
L 220.0896 100.897229 
L 220.9824 100.152769 
L 221.8752 100.272986 
L 222.768 98.331796 
L 223.6608 101.669489 
L 224.5536 107.626831 
L 226.3392 114.105159 
L 227.232 112.245332 
L 228.1248 116.072317 
L 229.0176 111.012485 
L 229.9104 111.453528 
L 230.8032 106.030532 
L 231.696 108.810404 
L 232.5888 102.79036 
L 233.4816 104.252182 
L 234.3744 101.911974 
L 235.2672 105.926174 
L 236.16 106.202625 
L 237.9456 103.729856 
L 238.8384 103.238057 
L 239.7312 106.406655 
L 241.5168 102.736808 
L 242.4096 99.659952 
L 243.3024 102.578708 
L 244.1952 105.000389 
L 245.9808 97.812468 
L 246.8736 100.78878 
L 247.7664 102.959114 
L 248.6592 106.992784 
L 249.552 109.835189 
L 250.4448 110.950539 
L 251.3376 110.497194 
L 252.2304 111.593306 
L 253.1232 106.471353 
L 254.016 99.297953 
L 254.9088 96.575416 
L 255.8016 95.404651 
L 256.6944 96.333723 
L 257.5872 96.71453 
L 258.48 96.003397 
L 259.3728 103.100186 
L 260.2656 102.500388 
L 261.1584 104.128746 
L 262.0512 103.691235 
L 262.944 106.53815 
L 264.7296 101.457165 
L 265.6224 95.134605 
L 266.5152 98.445259 
L 267.408 97.333462 
L 268.3008 94.388356 
L 269.1936 94.068854 
L 270.0864 95.881544 
L 270.9792 102.941283 
L 271.872 103.473614 
L 272.7648 100.996589 
L 273.6576 99.96601 
L 274.5504 107.233033 
L 275.4432 105.079944 
L 276.336 96.01243 
L 277.2288 92.223391 
L 278.1216 95.073539 
L 279.0144 95.710837 
L 279.9072 95.145581 
L 280.8 90.208983 
L 283.4784 108.974897 
L 284.3712 101.407589 
L 285.264 96.364341 
L 286.1568 96.723426 
L 287.0496 94.959625 
L 287.9424 85.751174 
L 288.8352 81.357325 
L 289.728 85.698375 
L 290.6208 97.984312 
L 291.5136 96.340663 
L 292.4064 95.433991 
L 293.2992 100.815694 
L 294.192 107.169948 
L 295.0848 104.079642 
L 295.9776 97.065546 
L 296.8704 94.176141 
L 297.7632 95.008839 
L 299.5488 85.977834 
L 300.4416 84.229137 
L 302.2272 95.275427 
L 303.12 94.183672 
L 304.0128 94.523932 
L 304.9056 98.744924 
L 305.7984 107.372414 
L 307.584 92.3848 
L 308.4768 89.440169 
L 309.3696 87.491139 
L 310.2624 88.898746 
L 311.1552 84.787886 
L 312.048 86.013555 
L 312.9408 88.261463 
L 313.8336 96.816407 
L 314.7264 96.986153 
L 315.6192 100.035883 
L 316.512 103.897827 
L 317.4048 104.327283 
L 318.2976 101.534565 
L 319.1904 91.100219 
L 320.0832 89.354139 
L 320.976 85.970907 
L 321.8688 81.285154 
L 322.7616 78.333999 
L 323.6544 80.806814 
L 324.5472 84.796111 
L 325.44 93.052782 
L 326.3328 97.996957 
L 327.2256 98.164913 
L 328.1184 101.425802 
L 329.0112 93.064408 
L 329.904 94.560912 
L 330.7968 83.570173 
L 331.6896 77.319909 
L 332.5824 76.918629 
L 333.4752 77.368024 
L 334.368 79.879874 
L 335.2608 83.375792 
L 336.1536 92.346704 
L 337.0464 96.611345 
L 337.9392 99.458259 
L 339.7248 91.951396 
L 340.6176 93.929264 
L 341.5104 85.403332 
L 343.296 75.890772 
L 344.1888 80.083414 
L 345.0816 90.364579 
L 345.9744 91.654454 
L 346.8672 88.593103 
L 347.76 89.829149 
L 348.6528 99.94129 
L 349.5456 101.009749 
L 350.4384 94.875204 
L 351.3312 91.169999 
L 352.224 89.586043 
L 353.1168 85.897718 
L 354.0096 80.840824 
L 354.9024 79.196462 
L 357.5808 97.93267 
L 358.4736 92.541782 
L 359.3664 94.314671 
L 360.2592 107.564078 
L 361.152 101.796494 
L 362.0448 91.25544 
L 362.9376 82.035367 
L 363.8304 87.390226 
L 364.7232 90.392212 
L 365.616 89.644442 
L 366.5088 84.20336 
L 367.4016 87.536157 
L 368.2944 99.384234 
L 369.1872 98.116484 
L 370.08 95.718345 
L 370.9728 91.570251 
L 371.8656 96.930211 
L 372.7584 94.751201 
L 373.6512 91.50985 
L 374.544 85.788295 
L 375.4368 87.554648 
L 376.3296 92.318075 
L 377.2224 93.951572 
L 378.1152 93.640616 
L 379.008 94.750838 
L 379.9008 104.13393 
L 380.7936 107.180147 
L 382.5792 96.493463 
L 383.472 100.222903 
L 384.3648 106.211263 
L 385.2576 94.112637 
L 386.1504 86.770282 
L 387.0432 88.159113 
L 387.936 89.028688 
L 388.8288 97.060519 
L 389.7216 87.766464 
L 390.6144 98.022868 
L 391.5072 97.788555 
L 392.4 96.748065 
L 393.2928 95.190333 
L 394.1856 92.834232 
L 395.0784 94.971476 
L 395.9712 97.814825 
L 396.864 98.562177 
L 397.7568 89.994648 
L 398.6496 91.254018 
L 399.5424 95.347838 
L 400.4352 94.993723 
L 401.328 89.842247 
L 402.2208 100.567136 
L 404.0064 106.567891 
L 404.8992 101.585516 
L 405.792 97.24297 
L 406.6848 91.535862 
L 407.5776 107.500107 
L 408.4704 108.981996 
L 409.3632 82.646642 
L 410.256 90.055458 
L 411.1488 93.531528 
L 412.0416 107.441094 
L 412.9344 91.578591 
L 413.8272 97.66299 
L 414.72 93.452764 
L 414.72 93.452764 
" clip-path="url(#p167cd2f3e7)" style="fill: none; stroke: #1f77b4; stroke-width: 1.5; stroke-linecap: square"/>
   </g>
   <g id="line2d_16">
    <path d="M 57.6 60.923532 
L 58.4928 65.405946 
L 59.3856 61.854152 
L 60.2784 58.845156 
L 61.1712 63.977116 
L 62.064 66.886509 
L 62.9568 64.438216 
L 63.8496 59.548515 
L 64.7424 60.056735 
L 65.6352 63.936371 
L 66.528 63.041552 
L 67.4208 55.286713 
L 68.3136 53.568 
L 69.2064 57.926998 
L 70.0992 63.758018 
L 70.992 61.294147 
L 71.8848 56.146203 
L 72.7776 58.620052 
L 73.6704 66.404694 
L 74.5632 68.935583 
L 75.456 60.642668 
L 76.3488 58.200185 
L 78.1344 64.498397 
L 79.92 54.714935 
L 80.8128 58.282364 
L 81.7056 64.089543 
L 82.5984 65.50438 
L 83.4912 60.604119 
L 84.384 62.607624 
L 85.2768 70.563484 
L 86.1696 69.035392 
L 87.0624 60.100838 
L 87.9552 58.370814 
L 88.848 66.670977 
L 89.7408 68.490646 
L 90.6336 64.11334 
L 91.5264 58.493881 
L 92.4192 60.53206 
L 93.312 66.192886 
L 94.2048 69.423786 
L 95.0976 62.628359 
L 95.9904 60.042546 
L 96.8832 66.939612 
L 97.776 70.408417 
L 98.6688 63.66847 
L 99.5616 58.541267 
L 100.4544 61.95554 
L 101.3472 64.082992 
L 102.24 61.605062 
L 103.1328 57.303678 
L 104.0256 56.855266 
L 104.9184 61.393756 
L 105.8112 65.234232 
L 107.5968 55.426407 
L 108.4896 61.233014 
L 109.3824 68.192381 
L 111.168 57.74231 
L 112.0608 58.416298 
L 112.9536 64.433645 
L 113.8464 64.486586 
L 115.632 58.057913 
L 116.5248 61.406739 
L 117.4176 65.650088 
L 118.3104 66.607568 
L 119.2032 63.419203 
L 120.096 64.149001 
L 120.9888 66.389802 
L 121.8816 64.517154 
L 122.7744 61.441683 
L 123.6672 62.079646 
L 124.56 64.912778 
L 125.4528 64.80106 
L 126.3456 62.673351 
L 127.2384 62.444094 
L 128.1312 66.757274 
L 129.024 69.283795 
L 129.9168 64.135915 
L 130.8096 61.545317 
L 131.7024 63.212132 
L 132.5952 66.43934 
L 133.488 65.461489 
L 134.3808 62.046635 
L 135.2736 62.602235 
L 136.1664 65.68703 
L 137.0592 65.25611 
L 137.952 61.521171 
L 138.8448 62.302851 
L 140.6304 67.9768 
L 141.5232 62.04773 
L 142.416 61.027704 
L 144.2016 65.320867 
L 145.0944 59.747505 
L 145.9872 55.428808 
L 146.88 55.422584 
L 147.7728 60.796828 
L 148.6656 63.543542 
L 149.5584 58.284906 
L 150.4512 56.208742 
L 151.344 61.587927 
L 152.2368 68.533332 
L 153.1296 67.955652 
L 154.0224 61.513402 
L 154.9152 62.977002 
L 155.808 67.890563 
L 156.7008 68.86518 
L 157.5936 62.261515 
L 158.4864 60.463782 
L 160.272 67.839036 
L 161.1648 65.131361 
L 162.0576 65.1298 
L 162.9504 69.65114 
L 163.8432 74.910716 
L 164.736 68.834924 
L 165.6288 61.441789 
L 166.5216 62.699158 
L 167.4144 65.787173 
L 168.3072 64.26501 
L 169.2 59.156766 
L 170.0928 58.793271 
L 170.9856 62.327522 
L 171.8784 69.384484 
L 173.664 61.767297 
L 174.5568 63.330297 
L 175.4496 68.242015 
L 176.3424 64.087811 
L 177.2352 58.840618 
L 178.128 59.895244 
L 179.0208 65.247347 
L 179.9136 65.293905 
L 180.8064 60.803575 
L 181.6992 59.911053 
L 182.592 64.413289 
L 183.4848 69.670447 
L 184.3776 65.038203 
L 185.2704 58.057851 
L 186.1632 62.830909 
L 187.056 70.387367 
L 187.9488 69.156444 
L 188.8416 60.767406 
L 189.7344 61.523548 
L 191.52 68.185148 
L 192.4128 63.721856 
L 193.3056 62.221656 
L 194.1984 66.819354 
L 195.0912 73.05105 
L 195.984 72.612115 
L 196.8768 64.901678 
L 197.7696 62.849067 
L 198.6624 66.865143 
L 199.5552 67.417868 
L 200.448 59.61824 
L 201.3408 58.56138 
L 202.2336 62.350735 
L 203.1264 68.277663 
L 204.0192 65.766796 
L 204.912 62.512083 
L 205.8048 65.317364 
L 206.6976 72.334263 
L 207.5904 70.318476 
L 208.4832 59.501881 
L 209.376 56.208703 
L 210.2688 62.06474 
L 211.1616 64.330969 
L 212.9472 57.771976 
L 213.84 62.194797 
L 214.7328 68.745368 
L 215.6256 71.001306 
L 216.5184 64.778298 
L 217.4112 65.747134 
L 218.304 70.248342 
L 219.1968 73.493358 
L 220.0896 65.078631 
L 220.9824 60.381286 
L 221.8752 63.625645 
L 222.768 70.378193 
L 223.6608 68.072392 
L 224.5536 62.109557 
L 225.4464 61.116871 
L 227.232 71.823928 
L 228.1248 66.780738 
L 229.0176 60.935157 
L 229.9104 64.761609 
L 230.8032 72.527126 
L 231.696 71.532621 
L 232.5888 64.978686 
L 233.4816 63.771576 
L 234.3744 69.434484 
L 235.2672 70.787454 
L 236.16 66.631732 
L 237.0528 65.435754 
L 237.9456 67.822469 
L 238.8384 72.306196 
L 239.7312 70.969875 
L 240.624 64.459809 
L 241.5168 64.043524 
L 242.4096 62.898567 
L 243.3024 62.10593 
L 244.1952 61.535729 
L 245.088 61.547427 
L 245.9808 64.279669 
L 246.8736 67.951442 
L 247.7664 67.223485 
L 248.6592 67.266699 
L 249.552 67.63251 
L 250.4448 70.691834 
L 251.3376 68.723 
L 252.2304 66.088449 
L 253.1232 64.71341 
L 254.016 70.555817 
L 254.9088 73.418126 
L 255.8016 67.73166 
L 256.6944 68.006725 
L 257.5872 71.166147 
L 258.48 73.786447 
L 259.3728 73.296159 
L 260.2656 69.184395 
L 261.1584 70.325472 
L 262.0512 74.471082 
L 262.944 74.349063 
L 263.8368 71.315089 
L 264.7296 67.241522 
L 265.6224 68.673017 
L 266.5152 72.540237 
L 268.3008 66.247597 
L 269.1936 66.31227 
L 270.0864 68.027114 
L 270.9792 68.218116 
L 271.872 64.462149 
L 272.7648 62.556321 
L 273.6576 64.911589 
L 274.5504 65.86616 
L 275.4432 63.933702 
L 276.336 62.817468 
L 277.2288 63.969433 
L 278.1216 68.806078 
L 279.0144 67.079399 
L 279.9072 63.395201 
L 280.8 62.710455 
L 281.6928 69.009559 
L 282.5856 70.087786 
L 283.4784 67.330405 
L 284.3712 66.717525 
L 285.264 70.549295 
L 286.1568 73.178768 
L 287.9424 66.264942 
L 288.8352 68.888063 
L 289.728 69.031877 
L 290.6208 70.836957 
L 291.5136 67.106994 
L 292.4064 69.355565 
L 293.2992 73.085646 
L 294.192 73.469742 
L 295.0848 67.800806 
L 295.9776 65.62223 
L 297.7632 69.934416 
L 299.5488 63.514801 
L 300.4416 64.949721 
L 301.3344 70.029244 
L 302.2272 69.464586 
L 303.12 65.913042 
L 304.9056 67.042281 
L 305.7984 69.616627 
L 306.6912 66.237129 
L 307.584 66.323357 
L 308.4768 68.154386 
L 309.3696 69.372772 
L 310.2624 70.361696 
L 311.1552 70.243268 
L 312.9408 72.481938 
L 313.8336 71.780999 
L 314.7264 68.8204 
L 315.6192 69.239207 
L 316.512 74.594088 
L 317.4048 76.810429 
L 318.2976 74.347335 
L 319.1904 72.582279 
L 320.0832 76.274173 
L 320.976 78.28003 
L 321.8688 75.655708 
L 322.7616 67.710419 
L 323.6544 69.552094 
L 324.5472 72.151586 
L 325.44 73.858961 
L 326.3328 70.229409 
L 327.2256 70.702837 
L 328.1184 73.40046 
L 329.0112 75.428037 
L 329.904 72.310202 
L 330.7968 70.489022 
L 331.6896 70.040035 
L 332.5824 75.004613 
L 333.4752 72.761808 
L 334.368 68.165933 
L 335.2608 69.944587 
L 336.1536 72.500124 
L 337.0464 75.873712 
L 337.9392 71.380122 
L 338.832 70.11206 
L 339.7248 71.192417 
L 340.6176 75.451754 
L 341.5104 76.606597 
L 342.4032 73.528921 
L 343.296 76.112069 
L 344.1888 75.545084 
L 345.0816 79.554628 
L 345.9744 74.451627 
L 346.8672 73.909538 
L 348.6528 78.895902 
L 349.5456 75.25993 
L 350.4384 70.578237 
L 351.3312 73.699201 
L 352.224 78.55726 
L 353.1168 76.031364 
L 354.0096 71.183828 
L 354.9024 70.203192 
L 355.7952 72.314928 
L 356.688 78.442525 
L 357.5808 71.418234 
L 358.4736 69.153503 
L 359.3664 71.309585 
L 360.2592 83.928515 
L 361.152 78.145568 
L 362.0448 71.268437 
L 362.9376 66.52811 
L 363.8304 74.299577 
L 364.7232 79.855008 
L 365.616 70.38229 
L 366.5088 68.888609 
L 367.4016 73.382976 
L 368.2944 79.457264 
L 369.1872 74.000994 
L 370.08 73.450651 
L 370.9728 76.204882 
L 371.8656 81.584796 
L 372.7584 79.033047 
L 373.6512 74.033329 
L 374.544 73.188518 
L 375.4368 76.371002 
L 376.3296 81.219243 
L 377.2224 73.416774 
L 378.1152 69.260362 
L 379.008 78.190339 
L 379.9008 82.989455 
L 380.7936 79.28708 
L 381.6864 73.159666 
L 382.5792 76.72861 
L 383.472 85.043788 
L 384.3648 88.833754 
L 386.1504 74.183898 
L 387.0432 84.287536 
L 387.936 88.362519 
L 388.8288 78.186281 
L 389.7216 71.697429 
L 390.6144 73.457931 
L 391.5072 82.8679 
L 392.4 88.300798 
L 393.2928 76.227651 
L 394.1856 72.206149 
L 395.0784 80.90396 
L 395.9712 82.570312 
L 396.864 75.878925 
L 397.7568 72.951633 
L 398.6496 72.352742 
L 399.5424 79.066889 
L 400.4352 75.491171 
L 401.328 65.002303 
L 402.2208 72.769683 
L 403.1136 77.968794 
L 404.0064 80.036927 
L 404.8992 77.310509 
L 405.792 76.26231 
L 406.6848 77.545696 
L 407.5776 85.859562 
L 408.4704 77.232841 
L 409.3632 72.046654 
L 410.256 69.239069 
L 411.1488 86.808561 
L 412.0416 95.254205 
L 412.9344 77.507929 
L 413.8272 77.86333 
L 414.72 85.688514 
L 414.72 85.688514 
" clip-path="url(#p167cd2f3e7)" style="fill: none; stroke: #ff7f0e; stroke-width: 1.5; stroke-linecap: square"/>
   </g>
   <g id="line2d_17">
    <path d="M 57.6 74.028292 
L 58.4928 81.752633 
L 59.3856 76.317864 
L 60.2784 72.258032 
L 62.064 87.643861 
L 62.9568 83.786616 
L 63.8496 74.758521 
L 64.7424 75.938024 
L 65.6352 82.813035 
L 66.528 80.48208 
L 67.4208 66.789083 
L 68.3136 64.826483 
L 69.2064 72.796388 
L 70.0992 81.848775 
L 70.992 76.934412 
L 71.8848 70.523333 
L 72.7776 75.143937 
L 73.6704 88.090244 
L 74.5632 93.848305 
L 75.456 80.685299 
L 76.3488 78.39408 
L 77.2416 82.85535 
L 78.1344 83.732169 
L 79.0272 74.324624 
L 79.92 68.491259 
L 80.8128 74.346877 
L 81.7056 81.406558 
L 82.5984 80.322389 
L 83.4912 74.336056 
L 84.384 81.274194 
L 85.2768 93.400088 
L 86.1696 89.236622 
L 87.0624 74.702383 
L 87.9552 74.995256 
L 88.848 85.112143 
L 89.7408 85.771047 
L 90.6336 77.321242 
L 91.5264 72.727664 
L 92.4192 77.639417 
L 93.312 87.905686 
L 94.2048 89.343955 
L 95.0976 82.031384 
L 95.9904 85.182472 
L 96.8832 97.505755 
L 97.776 96.417803 
L 98.6688 82.001292 
L 99.5616 79.316949 
L 100.4544 84.432333 
L 101.3472 83.333399 
L 102.24 75.789165 
L 103.1328 73.373038 
L 104.0256 77.34339 
L 104.9184 87.18181 
L 105.8112 87.565104 
L 106.704 78.177016 
L 107.5968 80.168577 
L 108.4896 93.45344 
L 109.3824 93.481054 
L 110.2752 76.256152 
L 111.168 75.763452 
L 112.0608 82.912712 
L 112.9536 86.933334 
L 113.8464 78.730722 
L 114.7392 75.621149 
L 115.632 79.856036 
L 116.5248 89.510621 
L 117.4176 94.197837 
L 118.3104 88.946119 
L 119.2032 91.826561 
L 120.096 99.299445 
L 120.9888 91.649656 
L 121.8816 80.404104 
L 122.7744 79.387159 
L 123.6672 82.756124 
L 124.56 88.246934 
L 125.4528 82.168599 
L 126.3456 78.044837 
L 127.2384 84.712259 
L 128.1312 97.128303 
L 129.024 98.322724 
L 129.9168 85.729526 
L 130.8096 86.37479 
L 131.7024 95.154254 
L 132.5952 91.404658 
L 133.488 82.039331 
L 134.3808 81.536868 
L 135.2736 86.531005 
L 136.1664 88.388261 
L 137.0592 84.602953 
L 137.952 82.009936 
L 138.8448 91.187965 
L 139.7376 98.654095 
L 140.6304 100.051244 
L 141.5232 89.365345 
L 142.416 94.551442 
L 143.3088 98.957722 
L 144.2016 92.072938 
L 145.0944 79.055403 
L 145.9872 78.587417 
L 146.88 83.742361 
L 147.7728 88.081241 
L 148.6656 84.211259 
L 149.5584 81.359742 
L 150.4512 87.905658 
L 151.344 97.948453 
L 152.2368 99.918015 
L 153.1296 92.65704 
L 154.0224 94.867471 
L 154.9152 99.303061 
L 155.808 95.310896 
L 156.7008 85.655882 
L 157.5936 86.066484 
L 158.4864 90.546366 
L 159.3792 92.369805 
L 160.272 87.234533 
L 161.1648 88.437005 
L 162.0576 100.624901 
L 162.9504 116.549371 
L 163.8432 105.956768 
L 164.736 96.986982 
L 165.6288 97.655807 
L 166.5216 98.927705 
L 167.4144 89.096364 
L 168.3072 82.414619 
L 169.2 82.571852 
L 170.0928 91.068085 
L 170.9856 91.756808 
L 171.8784 91.625693 
L 172.7712 92.853539 
L 173.664 108.405584 
L 174.5568 111.031402 
L 175.4496 98.550496 
L 176.3424 91.699721 
L 177.2352 97.265119 
L 178.128 97.30325 
L 179.0208 87.539115 
L 179.9136 83.800151 
L 180.8064 86.532894 
L 181.6992 96.085495 
L 182.592 99.759113 
L 183.4848 98.089988 
L 184.3776 96.849357 
L 185.2704 114.53219 
L 186.1632 123.612981 
L 187.056 101.021778 
L 187.9488 92.000081 
L 188.8416 96.377728 
L 189.7344 101.731318 
L 190.6272 94.990728 
L 191.52 86.734957 
L 192.4128 95.004668 
L 193.3056 110.296255 
L 194.1984 131.908388 
L 195.0912 109.557119 
L 195.984 107.14462 
L 196.8768 116.480353 
L 197.7696 114.736143 
L 198.6624 88.993913 
L 199.5552 83.461595 
L 200.448 87.315301 
L 201.3408 97.771783 
L 202.2336 95.968294 
L 203.1264 89.743586 
L 204.0192 94.312471 
L 204.912 114.121872 
L 205.8048 137.538778 
L 206.6976 115.201045 
L 207.5904 106.421647 
L 208.4832 110.115227 
L 209.376 105.979605 
L 210.2688 85.429989 
L 211.1616 82.971382 
L 212.0544 90.331699 
L 212.9472 104.548544 
L 213.84 106.90803 
L 214.7328 101.423534 
L 215.6256 105.556424 
L 216.5184 130.725269 
L 217.4112 141.830076 
L 218.304 113.711058 
L 219.1968 99.732526 
L 220.0896 107.041158 
L 220.9824 112.301313 
L 221.8752 102.322974 
L 222.768 89.864951 
L 223.6608 96.868845 
L 225.4464 120.50532 
L 226.3392 103.138398 
L 227.232 102.99071 
L 228.1248 120.634221 
L 229.0176 144.322914 
L 229.9104 112.205176 
L 230.8032 107.7877 
L 232.5888 131.490659 
L 233.4816 113.423951 
L 234.3744 100.531351 
L 235.2672 108.492894 
L 236.16 124.327758 
L 237.0528 134.21566 
L 237.9456 112.582008 
L 238.8384 114.777235 
L 239.7312 124.5217 
L 240.624 130.820989 
L 241.5168 101.789028 
L 242.4096 97.048061 
L 243.3024 102.404706 
L 244.1952 118.923536 
L 245.088 108.195939 
L 245.9808 102.548872 
L 246.8736 102.938205 
L 247.7664 113.910541 
L 248.6592 117.626827 
L 249.552 108.794038 
L 250.4448 108.258779 
L 252.2304 131.974626 
L 253.1232 120.688974 
L 254.016 112.030463 
L 255.8016 122.790704 
L 256.6944 107.759493 
L 257.5872 100.092437 
L 258.48 104.184343 
L 259.3728 113.062476 
L 260.2656 125.263649 
L 261.1584 117.432734 
L 262.0512 111.062891 
L 263.8368 137.046626 
L 264.7296 117.378954 
L 265.6224 104.74138 
L 266.5152 112.210747 
L 267.408 122.492752 
L 268.3008 120.832212 
L 269.1936 101.837305 
L 270.0864 104.405342 
L 270.9792 110.292488 
L 271.872 118.139037 
L 272.7648 108.689862 
L 273.6576 106.496087 
L 274.5504 112.545906 
L 275.4432 133.099748 
L 276.336 125.130877 
L 277.2288 114.503466 
L 278.1216 119.070711 
L 279.0144 130.531251 
L 279.9072 122.126933 
L 280.8 107.576899 
L 281.6928 108.356378 
L 282.5856 119.889843 
L 283.4784 128.765127 
L 284.3712 119.359606 
L 285.264 117.449597 
L 286.1568 127.089252 
L 287.0496 154.834697 
L 287.9424 128.14794 
L 288.8352 112.669926 
L 289.728 116.389763 
L 290.6208 132.000513 
L 291.5136 115.351545 
L 292.4064 108.485935 
L 293.2992 111.093617 
L 294.192 123.8334 
L 295.0848 140.20207 
L 295.9776 121.753207 
L 296.8704 117.248073 
L 297.7632 131.058908 
L 298.656 162.010817 
L 299.5488 123.77284 
L 300.4416 107.674117 
L 301.3344 120.293623 
L 302.2272 138.584203 
L 303.12 126.653078 
L 304.0128 111.530955 
L 304.9056 109.571557 
L 305.7984 119.526794 
L 306.6912 144.596318 
L 307.584 134.015112 
L 308.4768 131.853078 
L 309.3696 142.555478 
L 310.2624 178.121861 
L 311.1552 137.703057 
L 312.048 126.914093 
L 312.9408 127.469933 
L 313.8336 129.886957 
L 314.7264 128.959206 
L 315.6192 121.819333 
L 316.512 122.394671 
L 317.4048 137.873535 
L 318.2976 159.319396 
L 319.1904 167.782033 
L 320.0832 161.136252 
L 321.8688 199.43417 
L 322.7616 130.252822 
L 323.6544 120.113184 
L 324.5472 116.923119 
L 325.44 118.857833 
L 326.3328 121.510942 
L 327.2256 120.854635 
L 328.1184 135.983086 
L 329.0112 138.487952 
L 329.904 159.327875 
L 330.7968 200.336589 
L 331.6896 198.485662 
L 332.5824 178.027408 
L 333.4752 143.519982 
L 334.368 124.106519 
L 335.2608 117.049021 
L 336.1536 124.206576 
L 337.0464 141.063511 
L 337.9392 154.868245 
L 338.832 153.149303 
L 339.7248 166.607148 
L 340.6176 167.656555 
L 341.5104 150.176325 
L 342.4032 155.377031 
L 343.296 140.059599 
L 344.1888 149.253208 
L 345.0816 160.023252 
L 345.9744 149.890704 
L 346.8672 132.098436 
L 347.76 139.808148 
L 348.6528 157.081585 
L 349.5456 232.097182 
L 350.4384 195.040684 
L 351.3312 181.661104 
L 352.224 147.900598 
L 353.1168 122.835991 
L 354.0096 116.017698 
L 354.9024 120.357535 
L 355.7952 139.374116 
L 356.688 171.589068 
L 357.5808 137.795998 
L 358.4736 129.244709 
L 359.3664 138.194053 
L 360.2592 164.744247 
L 361.152 147.489158 
L 362.0448 146.872451 
L 363.8304 171.217839 
L 364.7232 133.214798 
L 365.616 119.897843 
L 366.5088 123.474331 
L 367.4016 144.725012 
L 368.2944 183.733079 
L 369.1872 159.661724 
L 370.08 150.932945 
L 370.9728 144.958852 
L 371.8656 153.305923 
L 372.7584 148.168641 
L 373.6512 153.415479 
L 374.544 163.766117 
L 375.4368 211.413519 
L 376.3296 141.646396 
L 377.2224 127.33899 
L 378.1152 129.657701 
L 379.9008 224.989116 
L 380.7936 169.405847 
L 381.6864 146.581722 
L 382.5792 186.666878 
L 383.472 152.012188 
L 384.3648 152.682527 
L 385.2576 136.194015 
L 386.1504 155.350069 
L 387.0432 213.42889 
L 387.936 142.571161 
L 388.8288 120.374909 
L 389.7216 140.312097 
L 390.6144 135.139858 
L 391.5072 180.118949 
L 392.4 155.871469 
L 393.2928 141.401373 
L 394.1856 295.488 
L 395.0784 152.206295 
L 395.9712 117.995928 
L 397.7568 140.072709 
L 398.6496 162.628388 
L 399.5424 148.45282 
L 400.4352 137.303271 
L 401.328 136.882581 
L 402.2208 170.450522 
L 403.1136 138.248601 
L 404.0064 139.135668 
L 404.8992 191.621025 
L 405.792 191.603414 
L 407.5776 148.10387 
L 408.4704 140.570758 
L 409.3632 153.636637 
L 410.256 151.363061 
L 411.1488 145.002725 
L 412.0416 152.110006 
L 412.9344 137.342937 
L 413.8272 178.505446 
L 414.72 174.809395 
L 414.72 174.809395 
" clip-path="url(#p167cd2f3e7)" style="fill: none; stroke: #2ca02c; stroke-width: 1.5; stroke-linecap: square"/>
   </g>
   <g id="patch_3">
    <path d="M 57.6 307.584 
L 57.6 41.472 
" style="fill: none; stroke: #000000; stroke-width: 0.8; stroke-linejoin: miter; stroke-linecap: square"/>
   </g>
   <g id="patch_4">
    <path d="M 414.72 307.584 
L 414.72 41.472 
" style="fill: none; stroke: #000000; stroke-width: 0.8; stroke-linejoin: miter; stroke-linecap: square"/>
   </g>
   <g id="patch_5">
    <path d="M 57.6 307.584 
L 414.72 307.584 
" style="fill: none; stroke: #000000; stroke-width: 0.8; stroke-linejoin: miter; stroke-linecap: square"/>
   </g>
   <g id="patch_6">
    <path d="M 57.6 41.472 
L 414.72 41.472 
" style="fill: none; stroke: #000000; stroke-width: 0.8; stroke-linejoin: miter; stroke-linecap: square"/>
   </g>
   <g id="legend_1">
    <g id="patch_7">
     <path d="M 64.6 302.584 
L 199.3625 302.584 
Q 201.3625 302.584 201.3625 300.584 
L 201.3625 257.549625 
Q 201.3625 255.549625 199.3625 255.549625 
L 64.6 255.549625 
Q 62.6 255.549625 62.6 257.549625 
L 62.6 300.584 
Q 62.6 302.584 64.6 302.584 
z
" style="fill: #ffffff; opacity: 0.8; stroke: #cccccc; stroke-linejoin: miter"/>
    </g>
    <g id="line2d_18">
     <path d="M 66.6 263.648062 
L 76.6 263.648062 
L 86.6 263.648062 
" style="fill: none; stroke: #1f77b4; stroke-width: 1.5; stroke-linecap: square"/>
    </g>
    <g id="text_17">
     <!-- Offset of 25 cm, S12 -->
     <g transform="translate(94.6 267.148062) scale(0.1 -0.1)">
      <defs>
       <path id="DejaVuSans-4f" d="M 2522 4238 
Q 1834 4238 1429 3725 
Q 1025 3213 1025 2328 
Q 1025 1447 1429 934 
Q 1834 422 2522 422 
Q 3209 422 3611 934 
Q 4013 1447 4013 2328 
Q 4013 3213 3611 3725 
Q 3209 4238 2522 4238 
z
M 2522 4750 
Q 3503 4750 4090 4092 
Q 4678 3434 4678 2328 
Q 4678 1225 4090 567 
Q 3503 -91 2522 -91 
Q 1538 -91 948 565 
Q 359 1222 359 2328 
Q 359 3434 948 4092 
Q 1538 4750 2522 4750 
z
" transform="scale(0.015625)"/>
       <path id="DejaVuSans-66" d="M 2375 4863 
L 2375 4384 
L 1825 4384 
Q 1516 4384 1395 4259 
Q 1275 4134 1275 3809 
L 1275 3500 
L 2222 3500 
L 2222 3053 
L 1275 3053 
L 1275 0 
L 697 0 
L 697 3053 
L 147 3053 
L 147 3500 
L 697 3500 
L 697 3744 
Q 697 4328 969 4595 
Q 1241 4863 1831 4863 
L 2375 4863 
z
" transform="scale(0.015625)"/>
       <path id="DejaVuSans-73" d="M 2834 3397 
L 2834 2853 
Q 2591 2978 2328 3040 
Q 2066 3103 1784 3103 
Q 1356 3103 1142 2972 
Q 928 2841 928 2578 
Q 928 2378 1081 2264 
Q 1234 2150 1697 2047 
L 1894 2003 
Q 2506 1872 2764 1633 
Q 3022 1394 3022 966 
Q 3022 478 2636 193 
Q 2250 -91 1575 -91 
Q 1294 -91 989 -36 
Q 684 19 347 128 
L 347 722 
Q 666 556 975 473 
Q 1284 391 1588 391 
Q 1994 391 2212 530 
Q 2431 669 2431 922 
Q 2431 1156 2273 1281 
Q 2116 1406 1581 1522 
L 1381 1569 
Q 847 1681 609 1914 
Q 372 2147 372 2553 
Q 372 3047 722 3315 
Q 1072 3584 1716 3584 
Q 2034 3584 2315 3537 
Q 2597 3491 2834 3397 
z
" transform="scale(0.015625)"/>
       <path id="DejaVuSans-6f" d="M 1959 3097 
Q 1497 3097 1228 2736 
Q 959 2375 959 1747 
Q 959 1119 1226 758 
Q 1494 397 1959 397 
Q 2419 397 2687 759 
Q 2956 1122 2956 1747 
Q 2956 2369 2687 2733 
Q 2419 3097 1959 3097 
z
M 1959 3584 
Q 2709 3584 3137 3096 
Q 3566 2609 3566 1747 
Q 3566 888 3137 398 
Q 2709 -91 1959 -91 
Q 1206 -91 779 398 
Q 353 888 353 1747 
Q 353 2609 779 3096 
Q 1206 3584 1959 3584 
z
" transform="scale(0.015625)"/>
       <path id="DejaVuSans-6d" d="M 3328 2828 
Q 3544 3216 3844 3400 
Q 4144 3584 4550 3584 
Q 5097 3584 5394 3201 
Q 5691 2819 5691 2113 
L 5691 0 
L 5113 0 
L 5113 2094 
Q 5113 2597 4934 2840 
Q 4756 3084 4391 3084 
Q 3944 3084 3684 2787 
Q 3425 2491 3425 1978 
L 3425 0 
L 2847 0 
L 2847 2094 
Q 2847 2600 2669 2842 
Q 2491 3084 2119 3084 
Q 1678 3084 1418 2786 
Q 1159 2488 1159 1978 
L 1159 0 
L 581 0 
L 581 3500 
L 1159 3500 
L 1159 2956 
Q 1356 3278 1631 3431 
Q 1906 3584 2284 3584 
Q 2666 3584 2933 3390 
Q 3200 3197 3328 2828 
z
" transform="scale(0.015625)"/>
       <path id="DejaVuSans-2c" d="M 750 794 
L 1409 794 
L 1409 256 
L 897 -744 
L 494 -744 
L 750 256 
L 750 794 
z
" transform="scale(0.015625)"/>
       <path id="DejaVuSans-53" d="M 3425 4513 
L 3425 3897 
Q 3066 4069 2747 4153 
Q 2428 4238 2131 4238 
Q 1616 4238 1336 4038 
Q 1056 3838 1056 3469 
Q 1056 3159 1242 3001 
Q 1428 2844 1947 2747 
L 2328 2669 
Q 3034 2534 3370 2195 
Q 3706 1856 3706 1288 
Q 3706 609 3251 259 
Q 2797 -91 1919 -91 
Q 1588 -91 1214 -16 
Q 841 59 441 206 
L 441 856 
Q 825 641 1194 531 
Q 1563 422 1919 422 
Q 2459 422 2753 634 
Q 3047 847 3047 1241 
Q 3047 1584 2836 1778 
Q 2625 1972 2144 2069 
L 1759 2144 
Q 1053 2284 737 2584 
Q 422 2884 422 3419 
Q 422 4038 858 4394 
Q 1294 4750 2059 4750 
Q 2388 4750 2728 4690 
Q 3069 4631 3425 4513 
z
" transform="scale(0.015625)"/>
      </defs>
      <use xlink:href="#DejaVuSans-4f"/>
      <use xlink:href="#DejaVuSans-66" transform="translate(78.710938 0)"/>
      <use xlink:href="#DejaVuSans-66" transform="translate(113.916016 0)"/>
      <use xlink:href="#DejaVuSans-73" transform="translate(149.121094 0)"/>
      <use xlink:href="#DejaVuSans-65" transform="translate(201.220703 0)"/>
      <use xlink:href="#DejaVuSans-74" transform="translate(262.744141 0)"/>
      <use xlink:href="#DejaVuSans-20" transform="translate(301.953125 0)"/>
      <use xlink:href="#DejaVuSans-6f" transform="translate(333.740234 0)"/>
      <use xlink:href="#DejaVuSans-66" transform="translate(394.921875 0)"/>
      <use xlink:href="#DejaVuSans-20" transform="translate(430.126953 0)"/>
      <use xlink:href="#DejaVuSans-32" transform="translate(461.914062 0)"/>
      <use xlink:href="#DejaVuSans-35" transform="translate(525.537109 0)"/>
      <use xlink:href="#DejaVuSans-20" transform="translate(589.160156 0)"/>
      <use xlink:href="#DejaVuSans-63" transform="translate(620.947266 0)"/>
      <use xlink:href="#DejaVuSans-6d" transform="translate(675.927734 0)"/>
      <use xlink:href="#DejaVuSans-2c" transform="translate(773.339844 0)"/>
      <use xlink:href="#DejaVuSans-20" transform="translate(805.126953 0)"/>
      <use xlink:href="#DejaVuSans-53" transform="translate(836.914062 0)"/>
      <use xlink:href="#DejaVuSans-31" transform="translate(900.390625 0)"/>
      <use xlink:href="#DejaVuSans-32" transform="translate(964.013672 0)"/>
     </g>
    </g>
    <g id="line2d_19">
     <path d="M 66.6 278.326188 
L 76.6 278.326188 
L 86.6 278.326188 
" style="fill: none; stroke: #ff7f0e; stroke-width: 1.5; stroke-linecap: square"/>
    </g>
    <g id="text_18">
     <!-- Offset of 30 cm, S12 -->
     <g transform="translate(94.6 281.826188) scale(0.1 -0.1)">
      <use xlink:href="#DejaVuSans-4f"/>
      <use xlink:href="#DejaVuSans-66" transform="translate(78.710938 0)"/>
      <use xlink:href="#DejaVuSans-66" transform="translate(113.916016 0)"/>
      <use xlink:href="#DejaVuSans-73" transform="translate(149.121094 0)"/>
      <use xlink:href="#DejaVuSans-65" transform="translate(201.220703 0)"/>
      <use xlink:href="#DejaVuSans-74" transform="translate(262.744141 0)"/>
      <use xlink:href="#DejaVuSans-20" transform="translate(301.953125 0)"/>
      <use xlink:href="#DejaVuSans-6f" transform="translate(333.740234 0)"/>
      <use xlink:href="#DejaVuSans-66" transform="translate(394.921875 0)"/>
      <use xlink:href="#DejaVuSans-20" transform="translate(430.126953 0)"/>
      <use xlink:href="#DejaVuSans-33" transform="translate(461.914062 0)"/>
      <use xlink:href="#DejaVuSans-30" transform="translate(525.537109 0)"/>
      <use xlink:href="#DejaVuSans-20" transform="translate(589.160156 0)"/>
      <use xlink:href="#DejaVuSans-63" transform="translate(620.947266 0)"/>
      <use xlink:href="#DejaVuSans-6d" transform="translate(675.927734 0)"/>
      <use xlink:href="#DejaVuSans-2c" transform="translate(773.339844 0)"/>
      <use xlink:href="#DejaVuSans-20" transform="translate(805.126953 0)"/>
      <use xlink:href="#DejaVuSans-53" transform="translate(836.914062 0)"/>
      <use xlink:href="#DejaVuSans-31" transform="translate(900.390625 0)"/>
      <use xlink:href="#DejaVuSans-32" transform="translate(964.013672 0)"/>
     </g>
    </g>
    <g id="line2d_20">
     <path d="M 66.6 293.004312 
L 76.6 293.004312 
L 86.6 293.004312 
" style="fill: none; stroke: #2ca02c; stroke-width: 1.5; stroke-linecap: square"/>
    </g>
    <g id="text_19">
     <!-- Offset of 35 cm, S12 -->
     <g transform="translate(94.6 296.504312) scale(0.1 -0.1)">
      <use xlink:href="#DejaVuSans-4f"/>
      <use xlink:href="#DejaVuSans-66" transform="translate(78.710938 0)"/>
      <use xlink:href="#DejaVuSans-66" transform="translate(113.916016 0)"/>
      <use xlink:href="#DejaVuSans-73" transform="translate(149.121094 0)"/>
      <use xlink:href="#DejaVuSans-65" transform="translate(201.220703 0)"/>
      <use xlink:href="#DejaVuSans-74" transform="translate(262.744141 0)"/>
      <use xlink:href="#DejaVuSans-20" transform="translate(301.953125 0)"/>
      <use xlink:href="#DejaVuSans-6f" transform="translate(333.740234 0)"/>
      <use xlink:href="#DejaVuSans-66" transform="translate(394.921875 0)"/>
      <use xlink:href="#DejaVuSans-20" transform="translate(430.126953 0)"/>
      <use xlink:href="#DejaVuSans-33" transform="translate(461.914062 0)"/>
      <use xlink:href="#DejaVuSans-35" transform="translate(525.537109 0)"/>
      <use xlink:href="#DejaVuSans-20" transform="translate(589.160156 0)"/>
      <use xlink:href="#DejaVuSans-63" transform="translate(620.947266 0)"/>
      <use xlink:href="#DejaVuSans-6d" transform="translate(675.927734 0)"/>
      <use xlink:href="#DejaVuSans-2c" transform="translate(773.339844 0)"/>
      <use xlink:href="#DejaVuSans-20" transform="translate(805.126953 0)"/>
      <use xlink:href="#DejaVuSans-53" transform="translate(836.914062 0)"/>
      <use xlink:href="#DejaVuSans-31" transform="translate(900.390625 0)"/>
      <use xlink:href="#DejaVuSans-32" transform="translate(964.013672 0)"/>
     </g>
    </g>
   </g>
  </g>
 </g>
 <defs>
  <clipPath id="p167cd2f3e7">
   <rect x="57.6" y="41.472" width="357.12" height="266.112"/>
  </clipPath>
 </defs>
</svg>
